<?xml version="1.0" standalone="no"?>
<!DOCTYPE svg PUBLIC "-//W3C//DTD SVG 20010904//EN"
 "http://www.w3.org/TR/2001/REC-SVG-20010904/DTD/svg10.dtd">
<svg version="1.0" xmlns="http://www.w3.org/2000/svg"
 width="500.000000pt" height="500.000000pt" viewBox="0 0 500.000000 500.000000"
 preserveAspectRatio="xMidYMid meet">
<metadata>
Created by potrace 1.14, written by Peter Selinger 2001-2017
</metadata>
<g transform="translate(0.000000,500.000000) scale(0.100000,-0.100000)"
fill="#000000" stroke="none">
<path d="M2329 4996 c-2 -2 -42 -7 -89 -11 -46 -3 -87 -8 -90 -10 -3 -1 -27
-6 -53 -9 -42 -6 -77 -12 -175 -32 -90 -18 -318 -97 -447 -155 -27 -12 -50
-20 -51 -18 0 2 -7 -1 -15 -7 -8 -7 -50 -31 -94 -54 -474 -250 -879 -686
-1099 -1183 -78 -175 -152 -409 -171 -537 -4 -25 -8 -47 -10 -50 -1 -3 -6 -30
-9 -61 -4 -31 -9 -67 -12 -80 -10 -39 -12 -428 -3 -519 35 -351 140 -694 306
-990 201 -361 536 -707 888 -917 148 -88 237 -132 389 -193 74 -29 246 -86
287 -94 293 -61 364 -70 589 -70 211 -1 300 5 443 29 684 117 1288 510 1672
1090 127 191 230 407 300 625 15 47 29 93 31 103 2 9 6 25 8 35 21 88 46 218
52 267 3 33 8 69 11 80 11 48 10 417 -2 515 -21 167 -23 182 -34 237 -99 487
-335 930 -681 1273 -172 171 -239 226 -428 347 -283 182 -635 315 -962 363
-41 6 -86 14 -100 16 -29 6 -446 15 -451 10z m117 -683 c-3 -4 -12 -8 -19 -9
-7 -1 -37 -13 -67 -27 -119 -54 -228 -199 -274 -367 -4 -14 10 9 31 50 89 174
229 270 418 285 l40 3 -30 -14 c-16 -7 -36 -13 -43 -14 -21 0 -115 -64 -152
-104 -51 -53 -104 -146 -139 -240 -29 -82 -66 -235 -58 -243 4 -3 592 -6 719
-4 24 1 26 4 21 34 -24 166 -81 356 -124 419 -11 14 -19 31 -19 36 0 21 -96
112 -118 112 -12 0 -22 5 -22 11 0 5 5 7 12 3 6 -4 8 -3 5 2 -8 14 -93 55
-117 57 -11 1 -20 5 -20 10 0 19 157 -22 212 -55 20 -13 67 -42 105 -65 163
-99 265 -262 314 -501 l13 -62 56 -1 c30 0 105 0 167 1 81 0 114 -3 119 -12 9
-14 9 -12 18 -86 3 -28 8 -67 11 -85 4 -29 9 -73 21 -167 2 -19 8 -66 14 -105
10 -67 12 -89 25 -200 3 -27 7 -59 9 -70 2 -11 7 -47 10 -80 4 -33 9 -71 11
-85 2 -14 14 -99 25 -190 11 -91 22 -176 25 -190 2 -14 7 -47 10 -75 3 -27 8
-70 10 -95 3 -25 8 -58 10 -75 10 -66 16 -108 40 -300 25 -196 31 -242 39
-307 31 -232 36 -282 32 -296 -3 -9 -8 -38 -10 -63 -3 -26 -10 -57 -15 -70
l-8 -24 -1162 0 c-1155 0 -1162 0 -1166 20 -11 47 -23 168 -20 188 2 12 6 58
10 102 3 44 8 96 10 115 2 19 6 67 10 105 3 39 7 90 10 115 9 90 14 136 20
205 3 39 8 88 10 110 2 22 7 69 10 105 3 36 8 81 10 100 3 19 7 69 11 110 3
41 7 89 9 105 1 17 6 66 9 110 4 44 9 94 11 110 2 17 6 64 10 105 3 41 8 91
10 110 3 19 7 62 10 95 8 92 16 176 20 215 2 19 7 71 11 115 4 44 8 91 9 105
1 14 5 59 9 100 4 41 9 87 12 103 l6 27 125 -1 c69 0 127 1 129 3 2 2 6 22 9
44 31 199 81 335 167 451 66 91 185 166 280 179 24 4 45 8 47 10 8 7 64 4 57
-3z"/>
</g>
</svg>
